{
	"asset":{
		"generator":"Khronos glTF Blender I/O v4.1.63",
		"version":"2.0"
	},
	"scene":0,
	"scenes":[
		{
			"name":"Scene",
			"nodes":[
				0
			]
		}
	],
	"nodes":[
		{
			"mesh":0,
			"name":"Cylinder.002",
			"rotation":[
				0.7070857286453247,
				0.00750947929918766,
				0.0017733339918777347,
				0.7070857286453247
			],
			"scale":[
				3.077401561313309e-05,
				3.077401561313309e-05,
				3.077401561313309e-05
			]
		}
	],
	"materials":[
		{
			"doubleSided":true,
			"name":"Material.002",
			"pbrMetallicRoughness":{
				"baseColorTexture":{
					"index":0
				},
				"metallicFactor":0,
				"roughnessFactor":0.5
			}
		}
	],
	"meshes":[
		{
			"name":"Cylinder.003",
			"primitives":[
				{
					"attributes":{
						"POSITION":0,
						"NORMAL":1,
						"TEXCOORD_0":2
					},
					"indices":3,
					"material":0
				}
			]
		}
	],
	"textures":[
		{
			"sampler":0,
			"source":0
		}
	],
	"images":[
		{
			"mimeType":"image/jpeg",
			"name":"RBG",
			"uri":"textures/RBG.jpg"
		}
	],
	"accessors":[
		{
			"bufferView":0,
			"componentType":5126,
			"count":504,
			"max":[
				59.23528289794922,
				60.074832916259766,
				60.074832916259766
			],
			"min":[
				-60.872982025146484,
				-60.0748291015625,
				-60.07482147216797
			],
			"type":"VEC3"
		},
		{
			"bufferView":1,
			"componentType":5126,
			"count":504,
			"type":"VEC3"
		},
		{
			"bufferView":2,
			"componentType":5126,
			"count":504,
			"type":"VEC2"
		},
		{
			"bufferView":3,
			"componentType":5123,
			"count":1656,
			"type":"SCALAR"
		}
	],
	"bufferViews":[
		{
			"buffer":0,
			"byteLength":6048,
			"byteOffset":0,
			"target":34962
		},
		{
			"buffer":0,
			"byteLength":6048,
			"byteOffset":6048,
			"target":34962
		},
		{
			"buffer":0,
			"byteLength":4032,
			"byteOffset":12096,
			"target":34962
		},
		{
			"buffer":0,
			"byteLength":3312,
			"byteOffset":16128,
			"target":34963
		}
	],
	"samplers":[
		{
			"magFilter":9729,
			"minFilter":9987
		}
	],
	"buffers":[
		{
			"byteLength":19440,
			"uri":"gizmo.bin"
		}
	]
}
